<?xml version="1.0" encoding="UTF-8"?>
<svg xmlns="http://www.w3.org/2000/svg" xmlns:xlink="http://www.w3.org/1999/xlink" width="600" height="450" viewBox="0 0 600 450">
<defs>
<g>
<g id="glyph-0-0-36401c06">
<path d="M 8.296875 -9.0625 C 8.296875 -9.0625 4.953125 -9.0625 4.953125 -9.0625 C 4.953125 -9.0625 4.953125 0 4.953125 0 C 4.953125 0 3.65625 0 3.65625 0 C 3.65625 0 3.65625 -9.0625 3.65625 -9.0625 C 3.65625 -9.0625 0.296875 -9.0625 0.296875 -9.0625 C 0.296875 -9.0625 0.296875 -10.203125 0.296875 -10.203125 C 0.296875 -10.203125 8.296875 -10.203125 8.296875 -10.203125 C 8.296875 -10.203125 8.296875 -9.0625 8.296875 -9.0625 Z M 8.296875 -9.0625 "/>
</g>
<g id="glyph-0-1-36401c06">
<path d="M 7.1875 -3.328125 C 7.1875 -3.328125 1.78125 -3.328125 1.78125 -3.328125 C 1.8125 -1.65625 2.71875 -0.875 3.9375 -0.875 C 4.875 -0.875 5.53125 -1.265625 5.859375 -2.21875 C 5.859375 -2.21875 7.03125 -2.21875 7.03125 -2.21875 C 6.734375 -0.734375 5.578125 0.203125 3.890625 0.203125 C 1.828125 0.203125 0.5625 -1.21875 0.5625 -3.625 C 0.5625 -6.03125 1.875 -7.546875 3.921875 -7.546875 C 5.296875 -7.546875 6.40625 -6.8125 6.890625 -5.609375 C 7.09375 -5.0625 7.1875 -4.390625 7.1875 -3.328125 Z M 5.9375 -4.375 C 5.9375 -5.515625 5.046875 -6.46875 3.90625 -6.46875 C 2.734375 -6.46875 1.90625 -5.59375 1.8125 -4.28125 C 1.8125 -4.28125 5.921875 -4.28125 5.921875 -4.28125 C 5.9375 -4.3125 5.9375 -4.375 5.9375 -4.375 Z M 5.9375 -4.375 "/>
</g>
<g id="glyph-0-2-36401c06">
<path d="M 2.671875 0 C 2.671875 0 1.21875 0 1.21875 0 C 1.21875 0 1.21875 -1.453125 1.21875 -1.453125 C 1.21875 -1.453125 2.671875 -1.453125 2.671875 -1.453125 C 2.671875 -1.453125 2.671875 0 2.671875 0 Z M 2.671875 0 "/>
</g>
<g id="glyph-0-3-36401c06">
<path d="M 7.15625 -7.015625 C 7.15625 -5.796875 6.4375 -4.765625 5.046875 -4.015625 C 5.046875 -4.015625 3.65625 -3.265625 3.65625 -3.265625 C 2.4375 -2.546875 1.984375 -2.03125 1.859375 -1.21875 C 1.859375 -1.21875 7.078125 -1.21875 7.078125 -1.21875 C 7.078125 -1.21875 7.078125 0 7.078125 0 C 7.078125 0 0.46875 0 0.46875 0 C 0.59375 -2.1875 1.1875 -3.125 3.265625 -4.296875 C 3.265625 -4.296875 4.546875 -5.03125 4.546875 -5.03125 C 5.4375 -5.53125 5.890625 -6.203125 5.890625 -6.984375 C 5.890625 -8.046875 5.046875 -8.84375 3.9375 -8.84375 C 2.71875 -8.84375 2.03125 -8.140625 1.9375 -6.484375 C 1.9375 -6.484375 0.703125 -6.484375 0.703125 -6.484375 C 0.765625 -8.890625 1.953125 -9.921875 3.96875 -9.921875 C 5.859375 -9.921875 7.15625 -8.6875 7.15625 -7.015625 Z M 7.15625 -7.015625 "/>
</g>
<g id="glyph-0-4-36401c06">
<path d="M 7.09375 -4.78125 C 7.09375 -1.515625 5.953125 0.203125 3.84375 0.203125 C 1.71875 0.203125 0.609375 -1.515625 0.609375 -4.859375 C 0.609375 -8.1875 1.703125 -9.921875 3.84375 -9.921875 C 6 -9.921875 7.09375 -8.21875 7.09375 -4.78125 Z M 5.84375 -4.890625 C 5.84375 -7.546875 5.1875 -8.828125 3.84375 -8.828125 C 2.515625 -8.828125 1.859375 -7.5625 1.859375 -4.84375 C 1.859375 -2.125 2.515625 -0.8125 3.828125 -0.8125 C 5.1875 -0.8125 5.84375 -2.078125 5.84375 -4.890625 Z M 5.84375 -4.890625 "/>
</g>
<g id="glyph-1-0-36401c06">
<path d="M 2.140625 0 C 2.140625 0 0.984375 0 0.984375 0 C 0.984375 0 0.984375 -7.34375 0.984375 -7.34375 C 0.984375 -7.34375 2.140625 -7.34375 2.140625 -7.34375 C 2.140625 -7.34375 2.140625 0 2.140625 0 Z M 2.296875 -8.4375 C 2.296875 -8.4375 0.84375 -8.4375 0.84375 -8.4375 C 0.84375 -8.4375 0.84375 -9.890625 0.84375 -9.890625 C 0.84375 -9.890625 2.296875 -9.890625 2.296875 -9.890625 C 2.296875 -9.890625 2.296875 -8.4375 2.296875 -8.4375 Z M 2.296875 -8.4375 "/>
</g>
<g id="glyph-1-1-36401c06">
<path d="M 10.640625 0 C 10.640625 0 9.484375 0 9.484375 0 C 9.484375 0 9.484375 -5.046875 9.484375 -5.046875 C 9.484375 -5.984375 8.984375 -6.53125 8.140625 -6.53125 C 7.1875 -6.53125 6.390625 -5.671875 6.390625 -4.609375 C 6.390625 -4.609375 6.390625 0 6.390625 0 C 6.390625 0 5.234375 0 5.234375 0 C 5.234375 0 5.234375 -5.046875 5.234375 -5.046875 C 5.234375 -5.984375 4.75 -6.53125 3.875 -6.53125 C 2.921875 -6.53125 2.15625 -5.671875 2.15625 -4.609375 C 2.15625 -4.609375 2.15625 0 2.15625 0 C 2.15625 0 1 0 1 0 C 1 0 1 -7.34375 1 -7.34375 C 1 -7.34375 2.0625 -7.34375 2.0625 -7.34375 C 2.0625 -7.34375 2.0625 -6.296875 2.0625 -6.296875 C 2.6875 -7.1875 3.328125 -7.546875 4.3125 -7.546875 C 5.265625 -7.546875 5.859375 -7.203125 6.28125 -6.421875 C 6.96875 -7.25 7.5625 -7.546875 8.546875 -7.546875 C 9.90625 -7.546875 10.640625 -6.8125 10.640625 -5.5 C 10.640625 -5.5 10.640625 0 10.640625 0 Z M 10.640625 0 "/>
</g>
<g id="glyph-1-2-36401c06">
<path d="M 6.421875 -2.0625 C 6.421875 -0.640625 5.25 0.203125 3.40625 0.203125 C 1.484375 0.203125 0.53125 -0.546875 0.46875 -2.234375 C 0.46875 -2.234375 1.703125 -2.234375 1.703125 -2.234375 C 1.859375 -1.125 2.453125 -0.875 3.5 -0.875 C 4.515625 -0.875 5.203125 -1.28125 5.203125 -1.953125 C 5.203125 -2.484375 4.890625 -2.734375 4.078125 -2.921875 C 4.078125 -2.921875 2.984375 -3.1875 2.984375 -3.1875 C 1.25 -3.609375 0.65625 -4.15625 0.65625 -5.3125 C 0.65625 -6.65625 1.765625 -7.546875 3.46875 -7.546875 C 5.171875 -7.546875 6.125 -6.734375 6.125 -5.296875 C 6.125 -5.296875 4.90625 -5.296875 4.90625 -5.296875 C 4.875 -6.0625 4.375 -6.46875 3.4375 -6.46875 C 2.484375 -6.46875 1.875 -6.03125 1.875 -5.359375 C 1.875 -4.84375 2.28125 -4.53125 3.234375 -4.3125 C 3.234375 -4.3125 4.359375 -4.046875 4.359375 -4.046875 C 5.8125 -3.703125 6.421875 -3.15625 6.421875 -2.0625 Z M 6.421875 -2.0625 "/>
</g>
<g id="glyph-1-3-36401c06">
<path d="M 3.578125 -3.609375 C 3.578125 -1.40625 2.703125 1.140625 1.296875 2.96875 C 1.296875 2.96875 0.53125 2.96875 0.53125 2.96875 C 1.765625 0.984375 2.453125 -1.390625 2.453125 -3.609375 C 2.453125 -5.859375 1.765625 -8.203125 0.53125 -10.203125 C 0.53125 -10.203125 1.296875 -10.203125 1.296875 -10.203125 C 2.703125 -8.375 3.578125 -5.828125 3.578125 -3.609375 Z M 3.578125 -3.609375 "/>
</g>
<g id="glyph-1-4-36401c06">
<path d="M 7.09375 -4.78125 C 7.09375 -1.515625 5.953125 0.203125 3.84375 0.203125 C 1.71875 0.203125 0.609375 -1.515625 0.609375 -4.859375 C 0.609375 -8.1875 1.703125 -9.921875 3.84375 -9.921875 C 6 -9.921875 7.09375 -8.21875 7.09375 -4.78125 Z M 5.84375 -4.890625 C 5.84375 -7.546875 5.1875 -8.828125 3.84375 -8.828125 C 2.515625 -8.828125 1.859375 -7.5625 1.859375 -4.84375 C 1.859375 -2.125 2.515625 -0.8125 3.828125 -0.8125 C 5.1875 -0.8125 5.84375 -2.078125 5.84375 -4.890625 Z M 5.84375 -4.890625 "/>
</g>
<g id="glyph-1-5-36401c06">
<path d="M 2.671875 0 C 2.671875 0 1.21875 0 1.21875 0 C 1.21875 0 1.21875 -1.453125 1.21875 -1.453125 C 1.21875 -1.453125 2.671875 -1.453125 2.671875 -1.453125 C 2.671875 -1.453125 2.671875 0 2.671875 0 Z M 2.671875 0 "/>
</g>
<g id="glyph-1-6-36401c06">
<path d="M 7.28125 -2.375 C 7.28125 -2.375 5.8125 -2.375 5.8125 -2.375 C 5.8125 -2.375 5.8125 0 5.8125 0 C 5.8125 0 4.578125 0 4.578125 0 C 4.578125 0 4.578125 -2.375 4.578125 -2.375 C 4.578125 -2.375 0.390625 -2.375 0.390625 -2.375 C 0.390625 -2.375 0.390625 -3.6875 0.390625 -3.6875 C 0.390625 -3.6875 4.90625 -9.921875 4.90625 -9.921875 C 4.90625 -9.921875 5.8125 -9.921875 5.8125 -9.921875 C 5.8125 -9.921875 5.8125 -3.484375 5.8125 -3.484375 C 5.8125 -3.484375 7.28125 -3.484375 7.28125 -3.484375 C 7.28125 -3.484375 7.28125 -2.375 7.28125 -2.375 Z M 4.578125 -3.484375 C 4.578125 -3.484375 4.578125 -7.828125 4.578125 -7.828125 C 4.578125 -7.828125 1.46875 -3.484375 1.46875 -3.484375 C 1.46875 -3.484375 4.578125 -3.484375 4.578125 -3.484375 Z M 4.578125 -3.484375 "/>
</g>
<g id="glyph-2-0-36401c06">
</g>
<g id="glyph-2-1-36401c06">
<path d="M 4.078125 2.96875 C 4.078125 2.96875 3.296875 2.96875 3.296875 2.96875 C 1.90625 1.140625 1.015625 -1.40625 1.015625 -3.625 C 1.015625 -5.828125 1.90625 -8.375 3.296875 -10.203125 C 3.296875 -10.203125 4.078125 -10.203125 4.078125 -10.203125 C 2.84375 -8.21875 2.15625 -5.859375 2.15625 -3.625 C 2.15625 -1.390625 2.84375 0.96875 4.078125 2.96875 Z M 4.078125 2.96875 "/>
</g>
<g id="glyph-3-0-36401c06">
<path d="M 7.09375 -4.78125 C 7.09375 -1.515625 5.953125 0.203125 3.84375 0.203125 C 1.71875 0.203125 0.609375 -1.515625 0.609375 -4.859375 C 0.609375 -8.1875 1.703125 -9.921875 3.84375 -9.921875 C 6 -9.921875 7.09375 -8.21875 7.09375 -4.78125 Z M 5.84375 -4.890625 C 5.84375 -7.546875 5.1875 -8.828125 3.84375 -8.828125 C 2.515625 -8.828125 1.859375 -7.5625 1.859375 -4.84375 C 1.859375 -2.125 2.515625 -0.8125 3.828125 -0.8125 C 5.1875 -0.8125 5.84375 -2.078125 5.84375 -4.890625 Z M 5.84375 -4.890625 "/>
</g>
<g id="glyph-3-1-36401c06">
<path d="M 2.671875 0 C 2.671875 0 1.21875 0 1.21875 0 C 1.21875 0 1.21875 -1.453125 1.21875 -1.453125 C 1.21875 -1.453125 2.671875 -1.453125 2.671875 -1.453125 C 2.671875 -1.453125 2.671875 0 2.671875 0 Z M 2.671875 0 "/>
</g>
<g id="glyph-3-2-36401c06">
<path d="M 7.1875 -3.296875 C 7.1875 -1.1875 5.78125 0.203125 3.78125 0.203125 C 2.015625 0.203125 0.890625 -0.578125 0.484375 -2.546875 C 0.484375 -2.546875 1.71875 -2.546875 1.71875 -2.546875 C 2.015625 -1.421875 2.671875 -0.875 3.75 -0.875 C 5.09375 -0.875 5.921875 -1.6875 5.921875 -3.125 C 5.921875 -4.59375 5.078125 -5.453125 3.75 -5.453125 C 2.984375 -5.453125 2.5 -5.203125 1.9375 -4.515625 C 1.9375 -4.515625 0.796875 -4.515625 0.796875 -4.515625 C 0.796875 -4.515625 1.546875 -9.71875 1.546875 -9.71875 C 1.546875 -9.71875 6.65625 -9.71875 6.65625 -9.71875 C 6.65625 -9.71875 6.65625 -8.5 6.65625 -8.5 C 6.65625 -8.5 2.53125 -8.5 2.53125 -8.5 C 2.53125 -8.5 2.140625 -5.9375 2.140625 -5.9375 C 2.71875 -6.359375 3.28125 -6.53125 3.96875 -6.53125 C 5.875 -6.53125 7.1875 -5.25 7.1875 -3.296875 Z M 7.1875 -3.296875 "/>
</g>
<g id="glyph-4-0-36401c06">
<path d="M 7.09375 -4.78125 C 7.09375 -1.515625 5.953125 0.203125 3.84375 0.203125 C 1.71875 0.203125 0.609375 -1.515625 0.609375 -4.859375 C 0.609375 -8.1875 1.703125 -9.921875 3.84375 -9.921875 C 6 -9.921875 7.09375 -8.21875 7.09375 -4.78125 Z M 5.84375 -4.890625 C 5.84375 -7.546875 5.1875 -8.828125 3.84375 -8.828125 C 2.515625 -8.828125 1.859375 -7.5625 1.859375 -4.84375 C 1.859375 -2.125 2.515625 -0.8125 3.828125 -0.8125 C 5.1875 -0.8125 5.84375 -2.078125 5.84375 -4.890625 Z M 5.84375 -4.890625 "/>
</g>
<g id="glyph-5-0-36401c06">
<path d="M 0 -8.578125 C 0 -8.578125 0 -1.265625 0 -1.265625 C 0 -1.265625 -10.203125 -1.265625 -10.203125 -1.265625 C -10.203125 -1.265625 -10.203125 -8.328125 -10.203125 -8.328125 C -10.203125 -8.328125 -9.0625 -8.328125 -9.0625 -8.328125 C -9.0625 -8.328125 -9.0625 -2.5625 -9.0625 -2.5625 C -9.0625 -2.5625 -5.796875 -2.5625 -5.796875 -2.5625 C -5.796875 -2.5625 -5.796875 -8.125 -5.796875 -8.125 C -5.796875 -8.125 -4.640625 -8.125 -4.640625 -8.125 C -4.640625 -8.125 -4.640625 -2.5625 -4.640625 -2.5625 C -4.640625 -2.5625 -1.140625 -2.5625 -1.140625 -2.5625 C -1.140625 -2.5625 -1.140625 -8.578125 -1.140625 -8.578125 C -1.140625 -8.578125 0 -8.578125 0 -8.578125 Z M 0 -8.578125 "/>
</g>
<g id="glyph-6-0-36401c06">
<path d="M 0 -6.625 C 0 -6.625 0 -5.265625 0 -5.265625 C 0 -5.265625 -2.8125 -3.4375 -2.8125 -3.4375 C -2.8125 -3.4375 0 -1.5625 0 -1.5625 C 0 -1.5625 0 -0.234375 0 -0.234375 C 0 -0.234375 -3.734375 -2.828125 -3.734375 -2.828125 C -3.734375 -2.828125 -7.34375 -0.375 -7.34375 -0.375 C -7.34375 -0.375 -7.34375 -1.703125 -7.34375 -1.703125 C -7.34375 -1.703125 -4.671875 -3.46875 -4.671875 -3.46875 C -4.671875 -3.46875 -7.34375 -5.234375 -7.34375 -5.234375 C -7.34375 -5.234375 -7.34375 -6.546875 -7.34375 -6.546875 C -7.34375 -6.546875 -3.796875 -4.09375 -3.796875 -4.09375 C -3.796875 -4.09375 0 -6.625 0 -6.625 Z M 0 -6.625 "/>
</g>
<g id="glyph-7-0-36401c06">
<path d="M -2.515625 -6.671875 C -0.84375 -6.53125 0.203125 -5.4375 0.203125 -3.6875 C 0.203125 -1.6875 -1.234375 -0.4375 -3.59375 -0.4375 C -6.03125 -0.4375 -7.546875 -1.71875 -7.546875 -3.703125 C -7.546875 -5.328125 -6.65625 -6.453125 -4.875 -6.59375 C -4.875 -6.59375 -4.875 -5.421875 -4.875 -5.421875 C -5.890625 -5.28125 -6.46875 -4.65625 -6.46875 -3.6875 C -6.46875 -2.40625 -5.4375 -1.65625 -3.59375 -1.65625 C -1.859375 -1.65625 -0.875 -2.421875 -0.875 -3.703125 C -0.875 -4.703125 -1.34375 -5.3125 -2.515625 -5.5 C -2.515625 -5.5 -2.515625 -6.671875 -2.515625 -6.671875 Z M -2.515625 -6.671875 "/>
</g>
<g id="glyph-7-1-36401c06">
<path d="M 0 -3.5625 C 0.0625 -3.15625 0.09375 -2.890625 0.09375 -2.609375 C 0.09375 -1.6875 -0.328125 -1.1875 -1.0625 -1.1875 C -1.0625 -1.1875 -6.390625 -1.1875 -6.390625 -1.1875 C -6.390625 -1.1875 -6.390625 -0.203125 -6.390625 -0.203125 C -6.390625 -0.203125 -7.34375 -0.203125 -7.34375 -0.203125 C -7.34375 -0.203125 -7.34375 -1.1875 -7.34375 -1.1875 C -7.34375 -1.1875 -9.359375 -1.1875 -9.359375 -1.1875 C -9.359375 -1.1875 -9.359375 -2.359375 -9.359375 -2.359375 C -9.359375 -2.359375 -7.34375 -2.359375 -7.34375 -2.359375 C -7.34375 -2.359375 -7.34375 -3.5625 -7.34375 -3.5625 C -7.34375 -3.5625 -6.390625 -3.5625 -6.390625 -3.5625 C -6.390625 -3.5625 -6.390625 -2.359375 -6.390625 -2.359375 C -6.390625 -2.359375 -1.578125 -2.359375 -1.578125 -2.359375 C -1.0625 -2.359375 -0.921875 -2.484375 -0.921875 -3 C -0.921875 -3.21875 -0.9375 -3.40625 -0.984375 -3.5625 C -0.984375 -3.5625 0 -3.5625 0 -3.5625 Z M 0 -3.5625 "/>
</g>
<g id="glyph-8-0-36401c06">
<path d="M 0 -2.140625 C 0 -2.140625 0 -0.984375 0 -0.984375 C 0 -0.984375 -7.34375 -0.984375 -7.34375 -0.984375 C -7.34375 -0.984375 -7.34375 -2.140625 -7.34375 -2.140625 C -7.34375 -2.140625 0 -2.140625 0 -2.140625 Z M -8.4375 -2.296875 C -8.4375 -2.296875 -8.4375 -0.84375 -8.4375 -0.84375 C -8.4375 -0.84375 -9.890625 -0.84375 -9.890625 -0.84375 C -9.890625 -0.84375 -9.890625 -2.296875 -9.890625 -2.296875 C -9.890625 -2.296875 -8.4375 -2.296875 -8.4375 -2.296875 Z M -8.4375 -2.296875 "/>
</g>
<g id="glyph-8-1-36401c06">
<path d="M -0.03125 -7.484375 C 0.0625 -7.109375 0.09375 -6.9375 0.09375 -6.6875 C 0.09375 -6.125 -0.3125 -5.609375 -0.875 -5.484375 C -0.1875 -4.84375 0.203125 -3.9375 0.203125 -3 C 0.203125 -1.515625 -0.578125 -0.59375 -1.90625 -0.59375 C -2.796875 -0.59375 -3.453125 -1.015625 -3.8125 -1.875 C -3.984375 -2.328125 -4.046875 -2.578125 -4.25 -4.234375 C -4.375 -5.15625 -4.578125 -5.453125 -5.0625 -5.453125 C -5.0625 -5.453125 -5.375 -5.453125 -5.375 -5.453125 C -6.078125 -5.453125 -6.46875 -4.859375 -6.46875 -3.8125 C -6.46875 -2.71875 -6.0625 -2.1875 -5.171875 -2.09375 C -5.171875 -2.09375 -5.171875 -0.90625 -5.171875 -0.90625 C -6.859375 -0.984375 -7.546875 -2.078125 -7.546875 -3.84375 C -7.546875 -5.65625 -6.84375 -6.609375 -5.546875 -6.609375 C -5.546875 -6.609375 -1.453125 -6.609375 -1.453125 -6.609375 C -1.09375 -6.609375 -0.875 -6.828125 -0.875 -7.234375 C -0.875 -7.3125 -0.875 -7.359375 -0.90625 -7.484375 C -0.90625 -7.484375 -0.03125 -7.484375 -0.03125 -7.484375 Z M -2.53125 -5.453125 C -2.53125 -5.453125 -3.625 -5.453125 -3.625 -5.453125 C -3.4375 -5.046875 -3.390625 -4.796875 -3.21875 -3.5625 C -3.03125 -2.328125 -2.703125 -1.8125 -1.9375 -1.8125 C -1.140625 -1.8125 -0.8125 -2.34375 -0.8125 -3.25 C -0.8125 -4.375 -1.484375 -5.453125 -2.53125 -5.453125 Z M -2.53125 -5.453125 "/>
</g>
<g id="glyph-9-0-36401c06">
<path d="M 0 -3.5625 C 0.0625 -3.15625 0.09375 -2.890625 0.09375 -2.609375 C 0.09375 -1.6875 -0.328125 -1.1875 -1.0625 -1.1875 C -1.0625 -1.1875 -6.390625 -1.1875 -6.390625 -1.1875 C -6.390625 -1.1875 -6.390625 -0.203125 -6.390625 -0.203125 C -6.390625 -0.203125 -7.34375 -0.203125 -7.34375 -0.203125 C -7.34375 -0.203125 -7.34375 -1.1875 -7.34375 -1.1875 C -7.34375 -1.1875 -9.359375 -1.1875 -9.359375 -1.1875 C -9.359375 -1.1875 -9.359375 -2.359375 -9.359375 -2.359375 C -9.359375 -2.359375 -7.34375 -2.359375 -7.34375 -2.359375 C -7.34375 -2.359375 -7.34375 -3.5625 -7.34375 -3.5625 C -7.34375 -3.5625 -6.390625 -3.5625 -6.390625 -3.5625 C -6.390625 -3.5625 -6.390625 -2.359375 -6.390625 -2.359375 C -6.390625 -2.359375 -1.578125 -2.359375 -1.578125 -2.359375 C -1.0625 -2.359375 -0.921875 -2.484375 -0.921875 -3 C -0.921875 -3.21875 -0.9375 -3.40625 -0.984375 -3.5625 C -0.984375 -3.5625 0 -3.5625 0 -3.5625 Z M 0 -3.5625 "/>
</g>
<g id="glyph-10-0-36401c06">
<path d="M 0 -2.140625 C 0 -2.140625 0 -0.984375 0 -0.984375 C 0 -0.984375 -7.34375 -0.984375 -7.34375 -0.984375 C -7.34375 -0.984375 -7.34375 -2.140625 -7.34375 -2.140625 C -7.34375 -2.140625 0 -2.140625 0 -2.140625 Z M -8.4375 -2.296875 C -8.4375 -2.296875 -8.4375 -0.84375 -8.4375 -0.84375 C -8.4375 -0.84375 -9.890625 -0.84375 -9.890625 -0.84375 C -9.890625 -0.84375 -9.890625 -2.296875 -9.890625 -2.296875 C -9.890625 -2.296875 -8.4375 -2.296875 -8.4375 -2.296875 Z M -8.4375 -2.296875 "/>
</g>
<g id="glyph-10-1-36401c06">
<path d="M -3.609375 -7.140625 C -1.203125 -7.140625 0.203125 -5.875 0.203125 -3.828125 C 0.203125 -1.734375 -1.203125 -0.5 -3.671875 -0.5 C -6.125 -0.5 -7.546875 -1.75 -7.546875 -3.8125 C -7.546875 -5.921875 -6.140625 -7.140625 -3.609375 -7.140625 Z M -3.625 -5.921875 C -5.453125 -5.921875 -6.46875 -5.140625 -6.46875 -3.828125 C -6.46875 -2.515625 -5.4375 -1.71875 -3.671875 -1.71875 C -1.890625 -1.71875 -0.875 -2.515625 -0.875 -3.828125 C -0.875 -5.109375 -1.90625 -5.921875 -3.625 -5.921875 Z M -3.625 -5.921875 "/>
</g>
<g id="glyph-11-0-36401c06">
<path d="M 0 -6.8125 C 0 -6.8125 0 -5.65625 0 -5.65625 C 0 -5.65625 -5.078125 -5.65625 -5.078125 -5.65625 C -5.96875 -5.65625 -6.53125 -5.0625 -6.53125 -4.140625 C -6.53125 -2.953125 -5.546875 -2.140625 -4.046875 -2.140625 C -4.046875 -2.140625 0 -2.140625 0 -2.140625 C 0 -2.140625 0 -0.984375 0 -0.984375 C 0 -0.984375 -7.34375 -0.984375 -7.34375 -0.984375 C -7.34375 -0.984375 -7.34375 -2.0625 -7.34375 -2.0625 C -7.34375 -2.0625 -6.109375 -2.0625 -6.109375 -2.0625 C -7.125 -2.703125 -7.546875 -3.40625 -7.546875 -4.5 C -7.546875 -5.90625 -6.765625 -6.8125 -5.546875 -6.8125 C -5.546875 -6.8125 0 -6.8125 0 -6.8125 Z M 0 -6.8125 "/>
</g>
<g id="glyph-12-0-36401c06">
</g>
<g id="glyph-12-1-36401c06">
<path d="M -2.0625 -6.421875 C -0.640625 -6.421875 0.203125 -5.25 0.203125 -3.40625 C 0.203125 -1.484375 -0.546875 -0.53125 -2.234375 -0.46875 C -2.234375 -0.46875 -2.234375 -1.703125 -2.234375 -1.703125 C -1.125 -1.859375 -0.875 -2.453125 -0.875 -3.5 C -0.875 -4.515625 -1.28125 -5.203125 -1.953125 -5.203125 C -2.484375 -5.203125 -2.734375 -4.890625 -2.921875 -4.078125 C -2.921875 -4.078125 -3.1875 -2.984375 -3.1875 -2.984375 C -3.609375 -1.25 -4.15625 -0.65625 -5.3125 -0.65625 C -6.65625 -0.65625 -7.546875 -1.765625 -7.546875 -3.46875 C -7.546875 -5.171875 -6.734375 -6.125 -5.296875 -6.125 C -5.296875 -6.125 -5.296875 -4.90625 -5.296875 -4.90625 C -6.0625 -4.875 -6.46875 -4.375 -6.46875 -3.4375 C -6.46875 -2.484375 -6.03125 -1.875 -5.359375 -1.875 C -4.84375 -1.875 -4.53125 -2.28125 -4.3125 -3.234375 C -4.3125 -3.234375 -4.046875 -4.359375 -4.046875 -4.359375 C -3.703125 -5.8125 -3.15625 -6.421875 -2.0625 -6.421875 Z M -2.0625 -6.421875 "/>
</g>
<g id="glyph-12-2-36401c06">
<path d="M 0 -2.140625 C 0 -2.140625 0 -0.984375 0 -0.984375 C 0 -0.984375 -7.34375 -0.984375 -7.34375 -0.984375 C -7.34375 -0.984375 -7.34375 -2.140625 -7.34375 -2.140625 C -7.34375 -2.140625 0 -2.140625 0 -2.140625 Z M -8.4375 -2.296875 C -8.4375 -2.296875 -8.4375 -0.84375 -8.4375 -0.84375 C -8.4375 -0.84375 -9.890625 -0.84375 -9.890625 -0.84375 C -9.890625 -0.84375 -9.890625 -2.296875 -9.890625 -2.296875 C -9.890625 -2.296875 -8.4375 -2.296875 -8.4375 -2.296875 Z M -8.4375 -2.296875 "/>
</g>
<g id="glyph-12-3-36401c06">
<path d="M -1.203125 -6.84375 C 2.03125 -6.84375 3.046875 -5.859375 3.046875 -3.5625 C 3.046875 -1.84375 2.21875 -0.765625 0.84375 -0.640625 C 0.84375 -0.640625 0.84375 -1.828125 0.84375 -1.828125 C 1.734375 -1.96875 2.078125 -2.6875 2.078125 -3.609375 C 2.078125 -4.96875 1.328125 -5.765625 -0.609375 -5.765625 C -0.609375 -5.765625 -1.109375 -5.765625 -1.109375 -5.765625 C -0.1875 -5 0.203125 -4.359375 0.203125 -3.4375 C 0.203125 -1.703125 -1.28125 -0.40625 -3.59375 -0.40625 C -5.984375 -0.40625 -7.546875 -1.671875 -7.546875 -3.53125 C -7.546875 -4.46875 -7.140625 -5.1875 -6.265625 -5.765625 C -6.265625 -5.765625 -7.34375 -5.765625 -7.34375 -5.765625 C -7.34375 -5.765625 -7.34375 -6.84375 -7.34375 -6.84375 C -7.34375 -6.84375 -1.203125 -6.84375 -1.203125 -6.84375 Z M -3.625 -5.65625 C -5.40625 -5.65625 -6.46875 -4.90625 -6.46875 -3.65625 C -6.46875 -2.40625 -5.4375 -1.625 -3.671875 -1.625 C -1.890625 -1.625 -0.875 -2.390625 -0.875 -3.671875 C -0.875 -4.90625 -1.875 -5.65625 -3.625 -5.65625 Z M -3.625 -5.65625 "/>
</g>
<g id="glyph-12-4-36401c06">
<path d="M 0 -6.8125 C 0 -6.8125 0 -5.65625 0 -5.65625 C 0 -5.65625 -5.078125 -5.65625 -5.078125 -5.65625 C -5.96875 -5.65625 -6.53125 -5.0625 -6.53125 -4.140625 C -6.53125 -2.953125 -5.546875 -2.140625 -4.046875 -2.140625 C -4.046875 -2.140625 0 -2.140625 0 -2.140625 C 0 -2.140625 0 -0.984375 0 -0.984375 C 0 -0.984375 -7.34375 -0.984375 -7.34375 -0.984375 C -7.34375 -0.984375 -7.34375 -2.0625 -7.34375 -2.0625 C -7.34375 -2.0625 -6.109375 -2.0625 -6.109375 -2.0625 C -7.125 -2.703125 -7.546875 -3.40625 -7.546875 -4.5 C -7.546875 -5.90625 -6.765625 -6.8125 -5.546875 -6.8125 C -5.546875 -6.8125 0 -6.8125 0 -6.8125 Z M 0 -6.8125 "/>
</g>
<g id="glyph-12-5-36401c06">
<path d="M 0 -2.109375 C 0 -2.109375 0 -0.953125 0 -0.953125 C 0 -0.953125 -10.203125 -0.953125 -10.203125 -0.953125 C -10.203125 -0.953125 -10.203125 -2.109375 -10.203125 -2.109375 C -10.203125 -2.109375 0 -2.109375 0 -2.109375 Z M 0 -2.109375 "/>
</g>
<g id="glyph-13-0-36401c06">
<path d="M -0.03125 -7.484375 C 0.0625 -7.109375 0.09375 -6.9375 0.09375 -6.6875 C 0.09375 -6.125 -0.3125 -5.609375 -0.875 -5.484375 C -0.1875 -4.84375 0.203125 -3.9375 0.203125 -3 C 0.203125 -1.515625 -0.578125 -0.59375 -1.90625 -0.59375 C -2.796875 -0.59375 -3.453125 -1.015625 -3.8125 -1.875 C -3.984375 -2.328125 -4.046875 -2.578125 -4.25 -4.234375 C -4.375 -5.15625 -4.578125 -5.453125 -5.0625 -5.453125 C -5.0625 -5.453125 -5.375 -5.453125 -5.375 -5.453125 C -6.078125 -5.453125 -6.46875 -4.859375 -6.46875 -3.8125 C -6.46875 -2.71875 -6.0625 -2.1875 -5.171875 -2.09375 C -5.171875 -2.09375 -5.171875 -0.90625 -5.171875 -0.90625 C -6.859375 -0.984375 -7.546875 -2.078125 -7.546875 -3.84375 C -7.546875 -5.65625 -6.84375 -6.609375 -5.546875 -6.609375 C -5.546875 -6.609375 -1.453125 -6.609375 -1.453125 -6.609375 C -1.09375 -6.609375 -0.875 -6.828125 -0.875 -7.234375 C -0.875 -7.3125 -0.875 -7.359375 -0.90625 -7.484375 C -0.90625 -7.484375 -0.03125 -7.484375 -0.03125 -7.484375 Z M -2.53125 -5.453125 C -2.53125 -5.453125 -3.625 -5.453125 -3.625 -5.453125 C -3.4375 -5.046875 -3.390625 -4.796875 -3.21875 -3.5625 C -3.03125 -2.328125 -2.703125 -1.8125 -1.9375 -1.8125 C -1.140625 -1.8125 -0.8125 -2.34375 -0.8125 -3.25 C -0.8125 -4.375 -1.484375 -5.453125 -2.53125 -5.453125 Z M -2.53125 -5.453125 "/>
</g>
<g id="glyph-14-0-36401c06">
<path d="M 7.09375 -4.78125 C 7.09375 -1.515625 5.953125 0.203125 3.84375 0.203125 C 1.71875 0.203125 0.609375 -1.515625 0.609375 -4.859375 C 0.609375 -8.1875 1.703125 -9.921875 3.84375 -9.921875 C 6 -9.921875 7.09375 -8.21875 7.09375 -4.78125 Z M 5.84375 -4.890625 C 5.84375 -7.546875 5.1875 -8.828125 3.84375 -8.828125 C 2.515625 -8.828125 1.859375 -7.5625 1.859375 -4.84375 C 1.859375 -2.125 2.515625 -0.8125 3.828125 -0.8125 C 5.1875 -0.8125 5.84375 -2.078125 5.84375 -4.890625 Z M 5.84375 -4.890625 "/>
</g>
<g id="glyph-14-1-36401c06">
<path d="M 2.671875 0 C 2.671875 0 1.21875 0 1.21875 0 C 1.21875 0 1.21875 -1.453125 1.21875 -1.453125 C 1.21875 -1.453125 2.671875 -1.453125 2.671875 -1.453125 C 2.671875 -1.453125 2.671875 0 2.671875 0 Z M 2.671875 0 "/>
</g>
<g id="glyph-15-0-36401c06">
<path d="M 4.859375 0 C 4.859375 0 3.625 0 3.625 0 C 3.625 0 3.625 -7.0625 3.625 -7.0625 C 3.625 -7.0625 1.421875 -7.0625 1.421875 -7.0625 C 1.421875 -7.0625 1.421875 -7.953125 1.421875 -7.953125 C 3.328125 -8.1875 3.609375 -8.40625 4.046875 -9.921875 C 4.046875 -9.921875 4.859375 -9.921875 4.859375 -9.921875 C 4.859375 -9.921875 4.859375 0 4.859375 0 Z M 4.859375 0 "/>
</g>
<g id="glyph-15-1-36401c06">
<path d="M 2.671875 0 C 2.671875 0 1.21875 0 1.21875 0 C 1.21875 0 1.21875 -1.453125 1.21875 -1.453125 C 1.21875 -1.453125 2.671875 -1.453125 2.671875 -1.453125 C 2.671875 -1.453125 2.671875 0 2.671875 0 Z M 2.671875 0 "/>
</g>
<g id="glyph-16-0-36401c06">
<path d="M 7.09375 -4.78125 C 7.09375 -1.515625 5.953125 0.203125 3.84375 0.203125 C 1.71875 0.203125 0.609375 -1.515625 0.609375 -4.859375 C 0.609375 -8.1875 1.703125 -9.921875 3.84375 -9.921875 C 6 -9.921875 7.09375 -8.21875 7.09375 -4.78125 Z M 5.84375 -4.890625 C 5.84375 -7.546875 5.1875 -8.828125 3.84375 -8.828125 C 2.515625 -8.828125 1.859375 -7.5625 1.859375 -4.84375 C 1.859375 -2.125 2.515625 -0.8125 3.828125 -0.8125 C 5.1875 -0.8125 5.84375 -2.078125 5.84375 -4.890625 Z M 5.84375 -4.890625 "/>
</g>
<g id="glyph-17-0-36401c06">
<path d="M 9.203125 0 C 9.203125 0 7.09375 0 7.09375 0 C 7.09375 0 7.09375 -4.640625 7.09375 -4.640625 C 7.09375 -4.640625 3.046875 -4.640625 3.046875 -4.640625 C 3.046875 -4.640625 3.046875 0 3.046875 0 C 3.046875 0 0.953125 0 0.953125 0 C 0.953125 0 0.953125 -10.203125 0.953125 -10.203125 C 0.953125 -10.203125 3.046875 -10.203125 3.046875 -10.203125 C 3.046875 -10.203125 3.046875 -6.390625 3.046875 -6.390625 C 3.046875 -6.390625 7.09375 -6.390625 7.09375 -6.390625 C 7.09375 -6.390625 7.09375 -10.203125 7.09375 -10.203125 C 7.09375 -10.203125 9.203125 -10.203125 9.203125 -10.203125 C 9.203125 -10.203125 9.203125 0 9.203125 0 Z M 9.203125 0 "/>
</g>
<g id="glyph-17-1-36401c06">
<path d="M 7.34375 0 C 7.34375 0 5.203125 0 5.203125 0 C 5.03125 -0.21875 4.984375 -0.5625 4.984375 -0.953125 C 4.296875 -0.234375 3.53125 0.125 2.6875 0.125 C 1.421875 0.125 0.390625 -0.578125 0.390625 -2.046875 C 0.390625 -3.421875 1.125 -4.0625 2.625 -4.328125 C 2.625 -4.328125 3.40625 -4.46875 3.40625 -4.46875 C 4.375 -4.640625 4.96875 -4.546875 4.96875 -5.34375 C 4.96875 -5.859375 4.59375 -6.109375 3.84375 -6.109375 C 2.875 -6.109375 2.546875 -5.859375 2.453125 -5.0625 C 2.453125 -5.0625 0.5625 -5.0625 0.5625 -5.0625 C 0.6875 -6.8125 1.75 -7.6875 3.796875 -7.6875 C 5.84375 -7.6875 6.890625 -6.90625 6.890625 -5.359375 C 6.890625 -5.359375 6.890625 -1.15625 6.890625 -1.15625 C 6.890625 -0.765625 6.984375 -0.5625 7.34375 -0.234375 C 7.34375 -0.234375 7.34375 0 7.34375 0 Z M 4.96875 -3.234375 C 4.96875 -3.234375 4.96875 -3.5625 4.96875 -3.5625 C 4.75 -3.453125 4.65625 -3.4375 4.140625 -3.328125 C 4.140625 -3.328125 3.46875 -3.203125 3.46875 -3.203125 C 2.65625 -3.046875 2.359375 -2.84375 2.359375 -2.265625 C 2.359375 -1.703125 2.765625 -1.453125 3.421875 -1.453125 C 4.40625 -1.453125 4.96875 -2.09375 4.96875 -3.234375 Z M 4.96875 -3.234375 "/>
</g>
<g id="glyph-18-0-36401c06">
<path d="M 11.53125 0 C 11.53125 0 9.578125 0 9.578125 0 C 9.578125 0 9.578125 -5.046875 9.578125 -5.046875 C 9.578125 -5.640625 9.171875 -6.015625 8.515625 -6.015625 C 7.671875 -6.015625 7.171875 -5.453125 7.171875 -4.53125 C 7.171875 -4.53125 7.171875 0 7.171875 0 C 7.171875 0 5.203125 0 5.203125 0 C 5.203125 0 5.203125 -5.046875 5.203125 -5.046875 C 5.203125 -5.640625 4.796875 -6.015625 4.140625 -6.015625 C 3.296875 -6.015625 2.796875 -5.453125 2.796875 -4.53125 C 2.796875 -4.53125 2.796875 0 2.796875 0 C 2.796875 0 0.84375 0 0.84375 0 C 0.84375 0 0.84375 -7.5625 0.84375 -7.5625 C 0.84375 -7.5625 2.78125 -7.5625 2.78125 -7.5625 C 2.78125 -7.5625 2.78125 -6.625 2.78125 -6.625 C 3.4375 -7.390625 3.984375 -7.6875 4.859375 -7.6875 C 5.796875 -7.6875 6.546875 -7.28125 6.921875 -6.5625 C 7.5 -7.34375 8.171875 -7.6875 9.125 -7.6875 C 10.640625 -7.6875 11.53125 -6.8125 11.53125 -5.34375 C 11.53125 -5.34375 11.53125 0 11.53125 0 Z M 11.53125 0 "/>
</g>
<g id="glyph-18-1-36401c06">
<path d="M 7.34375 -3.5 C 7.34375 -3.5 7.34375 -3.265625 7.34375 -3.265625 C 7.34375 -3.265625 2.265625 -3.265625 2.265625 -3.265625 C 2.328125 -1.796875 2.90625 -1.375 3.84375 -1.375 C 4.546875 -1.375 5.171875 -1.578125 5.328125 -2.125 C 5.328125 -2.125 7.265625 -2.125 7.265625 -2.125 C 6.828125 -0.640625 5.453125 0.125 3.765625 0.125 C 1.625 0.125 0.3125 -1.265625 0.3125 -3.6875 C 0.3125 -6.21875 1.640625 -7.6875 3.8125 -7.6875 C 6.03125 -7.6875 7.34375 -6.109375 7.34375 -3.5 Z M 5.3125 -4.5625 C 5.203125 -5.640625 4.625 -6.1875 3.78125 -6.1875 C 2.90625 -6.1875 2.421875 -5.609375 2.296875 -4.5625 C 2.296875 -4.5625 5.3125 -4.5625 5.3125 -4.5625 Z M 5.3125 -4.5625 "/>
</g>
<g id="glyph-19-0-36401c06">
<path d="M 5.1875 -5.6875 C 4.90625 -5.71875 4.78125 -5.734375 4.5625 -5.734375 C 3.421875 -5.734375 2.84375 -5.171875 2.84375 -4.015625 C 2.84375 -4.015625 2.84375 0 2.84375 0 C 2.84375 0 0.875 0 0.875 0 C 0.875 0 0.875 -7.5625 0.875 -7.5625 C 0.875 -7.5625 2.84375 -7.5625 2.84375 -7.5625 C 2.84375 -7.5625 2.84375 -6.078125 2.84375 -6.078125 C 3.265625 -7.09375 4.046875 -7.6875 4.9375 -7.6875 C 5 -7.6875 5.0625 -7.6875 5.1875 -7.671875 C 5.1875 -7.671875 5.1875 -5.6875 5.1875 -5.6875 Z M 5.1875 -5.6875 "/>
</g>
</g>
</defs>
<rect x="-60" y="-45" width="720" height="540" fill="rgb(100%, 100%, 100%)" fill-opacity="1"/>
<path fill-rule="nonzero" fill="rgb(100%, 100%, 100%)" fill-opacity="1" d="M 66 391 L 584 391 L 584 36 L 66 36 Z M 66 391 "/>
<path fill="none" stroke-width="1" stroke-linecap="butt" stroke-linejoin="miter" stroke="rgb(0%, 0%, 0%)" stroke-opacity="0.12" stroke-miterlimit="1.154701" d="M 89.546875 391 L 89.546875 36 "/>
<path fill="none" stroke-width="1" stroke-linecap="butt" stroke-linejoin="miter" stroke="rgb(0%, 0%, 0%)" stroke-opacity="0.12" stroke-miterlimit="1.154701" d="M 277.910156 391 L 277.910156 36 "/>
<path fill="none" stroke-width="1" stroke-linecap="butt" stroke-linejoin="miter" stroke="rgb(0%, 0%, 0%)" stroke-opacity="0.12" stroke-miterlimit="1.154701" d="M 466.273438 391 L 466.273438 36 "/>
<path fill="none" stroke-width="1" stroke-linecap="butt" stroke-linejoin="miter" stroke="rgb(0%, 0%, 0%)" stroke-opacity="0.12" stroke-miterlimit="1.154701" d="M 66 374.863281 L 584 374.863281 "/>
<path fill="none" stroke-width="1" stroke-linecap="butt" stroke-linejoin="miter" stroke="rgb(0%, 0%, 0%)" stroke-opacity="0.12" stroke-miterlimit="1.154701" d="M 66 213.5 L 584 213.5 "/>
<path fill="none" stroke-width="1" stroke-linecap="butt" stroke-linejoin="miter" stroke="rgb(0%, 0%, 0%)" stroke-opacity="0.12" stroke-miterlimit="1.154701" d="M 66 52.136719 L 584 52.136719 "/>
<g fill="rgb(0%, 0%, 0%)" fill-opacity="1">
<use xlink:href="#glyph-0-0-36401c06" x="299.337982" y="431.567993"/>
</g>
<g fill="rgb(0%, 0%, 0%)" fill-opacity="1">
<use xlink:href="#glyph-1-0-36401c06" x="307.891998" y="431.567993"/>
</g>
<g fill="rgb(0%, 0%, 0%)" fill-opacity="1">
<use xlink:href="#glyph-1-1-36401c06" x="311" y="431.567993"/>
</g>
<g fill="rgb(0%, 0%, 0%)" fill-opacity="1">
<use xlink:href="#glyph-0-1-36401c06" x="322.661987" y="431.567993"/>
</g>
<g fill="rgb(0%, 0%, 0%)" fill-opacity="1">
<use xlink:href="#glyph-2-0-36401c06" x="330.446014" y="431.567993"/>
</g>
<g fill="rgb(0%, 0%, 0%)" fill-opacity="1">
<use xlink:href="#glyph-2-1-36401c06" x="334.338013" y="431.567993"/>
</g>
<g fill="rgb(0%, 0%, 0%)" fill-opacity="1">
<use xlink:href="#glyph-1-2-36401c06" x="339" y="431.567993"/>
</g>
<g fill="rgb(0%, 0%, 0%)" fill-opacity="1">
<use xlink:href="#glyph-1-3-36401c06" x="346" y="431.567993"/>
</g>
<g fill="rgb(0%, 0%, 0%)" fill-opacity="1">
<use xlink:href="#glyph-3-0-36401c06" x="75.923447" y="412.257996"/>
</g>
<g fill="rgb(0%, 0%, 0%)" fill-opacity="1">
<use xlink:href="#glyph-3-1-36401c06" x="83.707451" y="412.257996"/>
</g>
<g fill="rgb(0%, 0%, 0%)" fill-opacity="1">
<use xlink:href="#glyph-4-0-36401c06" x="87.599464" y="412.257996"/>
</g>
<g fill="rgb(0%, 0%, 0%)" fill-opacity="1">
<use xlink:href="#glyph-3-0-36401c06" x="95.383446" y="412.257996"/>
</g>
<g fill="rgb(0%, 0%, 0%)" fill-opacity="1">
<use xlink:href="#glyph-1-4-36401c06" x="264.287079" y="412.257996"/>
</g>
<g fill="rgb(0%, 0%, 0%)" fill-opacity="1">
<use xlink:href="#glyph-0-2-36401c06" x="272.071075" y="412.257996"/>
</g>
<g fill="rgb(0%, 0%, 0%)" fill-opacity="1">
<use xlink:href="#glyph-1-4-36401c06" x="275.963074" y="412.257996"/>
</g>
<g fill="rgb(0%, 0%, 0%)" fill-opacity="1">
<use xlink:href="#glyph-0-3-36401c06" x="283.74707" y="412.257996"/>
</g>
<g fill="rgb(0%, 0%, 0%)" fill-opacity="1">
<use xlink:href="#glyph-1-4-36401c06" x="452.650726" y="412.257996"/>
</g>
<g fill="rgb(0%, 0%, 0%)" fill-opacity="1">
<use xlink:href="#glyph-1-5-36401c06" x="460.434723" y="412.257996"/>
</g>
<g fill="rgb(0%, 0%, 0%)" fill-opacity="1">
<use xlink:href="#glyph-0-4-36401c06" x="464.326721" y="412.257996"/>
</g>
<g fill="rgb(0%, 0%, 0%)" fill-opacity="1">
<use xlink:href="#glyph-1-6-36401c06" x="472.110748" y="412.257996"/>
</g>
<g fill="rgb(0%, 0%, 0%)" fill-opacity="1">
<use xlink:href="#glyph-5-0-36401c06" x="28.487991" y="264.074982"/>
</g>
<g fill="rgb(0%, 0%, 0%)" fill-opacity="1">
<use xlink:href="#glyph-6-0-36401c06" x="28.487991" y="254.736984"/>
</g>
<g fill="rgb(0%, 0%, 0%)" fill-opacity="1">
<use xlink:href="#glyph-7-0-36401c06" x="28.487991" y="247.736984"/>
</g>
<g fill="rgb(0%, 0%, 0%)" fill-opacity="1">
<use xlink:href="#glyph-8-0-36401c06" x="28.487991" y="240.737"/>
</g>
<g fill="rgb(0%, 0%, 0%)" fill-opacity="1">
<use xlink:href="#glyph-9-0-36401c06" x="28.487991" y="237.628998"/>
</g>
<g fill="rgb(0%, 0%, 0%)" fill-opacity="1">
<use xlink:href="#glyph-8-1-36401c06" x="28.487991" y="233.737"/>
</g>
<g fill="rgb(0%, 0%, 0%)" fill-opacity="1">
<use xlink:href="#glyph-7-1-36401c06" x="28.487991" y="225.952988"/>
</g>
<g fill="rgb(0%, 0%, 0%)" fill-opacity="1">
<use xlink:href="#glyph-10-0-36401c06" x="28.487991" y="222.060989"/>
</g>
<g fill="rgb(0%, 0%, 0%)" fill-opacity="1">
<use xlink:href="#glyph-10-1-36401c06" x="28.487991" y="218.953003"/>
</g>
<g fill="rgb(0%, 0%, 0%)" fill-opacity="1">
<use xlink:href="#glyph-11-0-36401c06" x="28.48801" y="211.169006"/>
</g>
<g fill="rgb(0%, 0%, 0%)" fill-opacity="1">
<use xlink:href="#glyph-12-0-36401c06" x="28.48801" y="203.384995"/>
</g>
<g fill="rgb(0%, 0%, 0%)" fill-opacity="1">
<use xlink:href="#glyph-12-1-36401c06" x="28.48801" y="199.492996"/>
</g>
<g fill="rgb(0%, 0%, 0%)" fill-opacity="1">
<use xlink:href="#glyph-12-2-36401c06" x="28.48801" y="192.492996"/>
</g>
<g fill="rgb(0%, 0%, 0%)" fill-opacity="1">
<use xlink:href="#glyph-12-3-36401c06" x="28.48801" y="189.384995"/>
</g>
<g fill="rgb(0%, 0%, 0%)" fill-opacity="1">
<use xlink:href="#glyph-12-4-36401c06" x="28.48801" y="181.600998"/>
</g>
<g fill="rgb(0%, 0%, 0%)" fill-opacity="1">
<use xlink:href="#glyph-13-0-36401c06" x="28.48801" y="173.817001"/>
</g>
<g fill="rgb(0%, 0%, 0%)" fill-opacity="1">
<use xlink:href="#glyph-12-5-36401c06" x="28.48801" y="166.033005"/>
</g>
<g fill="rgb(0%, 0%, 0%)" fill-opacity="1">
<use xlink:href="#glyph-14-0-36401c06" x="36.540001" y="379.966644"/>
</g>
<g fill="rgb(0%, 0%, 0%)" fill-opacity="1">
<use xlink:href="#glyph-14-1-36401c06" x="44.324005" y="379.966644"/>
</g>
<g fill="rgb(0%, 0%, 0%)" fill-opacity="1">
<use xlink:href="#glyph-3-0-36401c06" x="48.215996" y="379.966644"/>
</g>
<g fill="rgb(0%, 0%, 0%)" fill-opacity="1">
<use xlink:href="#glyph-14-0-36401c06" x="36.540001" y="218.602997"/>
</g>
<g fill="rgb(0%, 0%, 0%)" fill-opacity="1">
<use xlink:href="#glyph-14-1-36401c06" x="44.324005" y="218.602997"/>
</g>
<g fill="rgb(0%, 0%, 0%)" fill-opacity="1">
<use xlink:href="#glyph-3-2-36401c06" x="48.215996" y="218.602997"/>
</g>
<g fill="rgb(0%, 0%, 0%)" fill-opacity="1">
<use xlink:href="#glyph-15-0-36401c06" x="36.540001" y="57.239346"/>
</g>
<g fill="rgb(0%, 0%, 0%)" fill-opacity="1">
<use xlink:href="#glyph-15-1-36401c06" x="44.324005" y="57.239346"/>
</g>
<g fill="rgb(0%, 0%, 0%)" fill-opacity="1">
<use xlink:href="#glyph-16-0-36401c06" x="48.215996" y="57.239346"/>
</g>
<g fill="rgb(0%, 0%, 0%)" fill-opacity="1">
<use xlink:href="#glyph-17-0-36401c06" x="296.992981" y="28.947996"/>
</g>
<g fill="rgb(0%, 0%, 0%)" fill-opacity="1">
<use xlink:href="#glyph-17-1-36401c06" x="307.100983" y="28.947996"/>
</g>
<g fill="rgb(0%, 0%, 0%)" fill-opacity="1">
<use xlink:href="#glyph-18-0-36401c06" x="314.88501" y="28.947996"/>
</g>
<g fill="rgb(0%, 0%, 0%)" fill-opacity="1">
<use xlink:href="#glyph-18-0-36401c06" x="327.330994" y="28.947996"/>
</g>
<g fill="rgb(0%, 0%, 0%)" fill-opacity="1">
<use xlink:href="#glyph-18-1-36401c06" x="339.777008" y="28.947996"/>
</g>
<g fill="rgb(0%, 0%, 0%)" fill-opacity="1">
<use xlink:href="#glyph-19-0-36401c06" x="347.561005" y="28.947996"/>
</g>
<path fill="none" stroke-width="1.5" stroke-linecap="butt" stroke-linejoin="miter" stroke="rgb(0%, 44.705883%, 69.803923%)" stroke-opacity="1" stroke-miterlimit="2" d="M 89.546875 374.863281 L 188.8125 374.863281 L 188.90625 374.859375 L 189.566406 374.859375 L 189.660156 374.855469 L 189.941406 374.855469 L 190.039063 374.851563 L 190.226563 374.851563 L 190.320313 374.847656 L 190.414063 374.847656 L 190.507813 374.84375 L 190.601563 374.84375 L 190.789063 374.835938 L 190.886719 374.835938 L 191.636719 374.804688 L 191.734375 374.796875 L 191.828125 374.792969 L 191.921875 374.785156 L 192.015625 374.78125 L 192.390625 374.75 L 192.484375 374.738281 L 192.582031 374.730469 L 192.957031 374.683594 L 193.050781 374.667969 L 193.144531 374.65625 L 193.332031 374.625 L 193.429688 374.605469 L 193.523438 374.589844 L 193.710938 374.550781 L 193.804688 374.527344 L 193.898438 374.507813 L 193.992188 374.484375 L 194.085938 374.457031 L 194.179688 374.433594 L 194.277344 374.40625 L 194.371094 374.375 L 194.464844 374.347656 L 194.558594 374.316406 L 194.839844 374.210938 L 195.027344 374.132813 L 195.125 374.089844 L 195.3125 374.003906 L 195.40625 373.953125 L 195.5 373.90625 L 195.78125 373.742188 L 195.875 373.683594 L 195.972656 373.621094 L 196.066406 373.558594 L 196.253906 373.425781 L 196.441406 373.277344 L 196.628906 373.121094 L 196.722656 373.039063 L 196.820313 372.953125 L 196.914063 372.863281 L 197.007813 372.769531 L 197.195313 372.574219 L 197.289063 372.472656 L 197.476563 372.253906 L 197.570313 372.140625 L 197.667969 372.023438 L 197.761719 371.902344 L 197.949219 371.644531 L 198.042969 371.511719 L 198.136719 371.375 L 198.324219 371.085938 L 198.417969 370.933594 L 198.515625 370.777344 L 198.609375 370.617188 L 198.796875 370.28125 L 198.890625 370.105469 L 198.984375 369.925781 L 199.078125 369.738281 L 199.171875 369.546875 L 199.265625 369.351563 L 199.363281 369.152344 L 199.457031 368.945313 L 199.550781 368.730469 L 199.644531 368.511719 L 199.738281 368.289063 L 199.832031 368.058594 L 199.925781 367.824219 L 200.019531 367.582031 L 200.113281 367.332031 L 200.210938 367.078125 L 200.304688 366.820313 L 200.398438 366.550781 L 200.492188 366.277344 L 200.585938 366 L 200.679688 365.714844 L 200.867188 365.121094 L 200.960938 364.8125 L 201.058594 364.5 L 201.152344 364.179688 L 201.246094 363.851563 L 201.339844 363.515625 L 201.433594 363.171875 L 201.527344 362.824219 L 201.621094 362.464844 L 201.714844 362.101563 L 201.808594 361.726563 L 201.90625 361.347656 L 202 360.960938 L 202.09375 360.566406 L 202.1875 360.160156 L 202.28125 359.75 L 202.375 359.328125 L 202.46875 358.902344 L 202.5625 358.464844 L 202.65625 358.023438 L 202.753906 357.570313 L 202.847656 357.109375 L 202.941406 356.640625 L 203.035156 356.160156 L 203.128906 355.675781 L 203.222656 355.179688 L 203.316406 354.675781 L 203.410156 354.164063 L 203.503906 353.644531 L 203.601563 353.113281 L 203.695313 352.574219 L 203.789063 352.027344 L 203.882813 351.472656 L 203.976563 350.90625 L 204.070313 350.332031 L 204.164063 349.746094 L 204.257813 349.152344 L 204.351563 348.550781 L 204.449219 347.941406 L 204.542969 347.320313 L 204.636719 346.691406 L 204.730469 346.050781 L 204.824219 345.402344 L 204.917969 344.742188 L 205.011719 344.078125 L 205.105469 343.398438 L 205.199219 342.714844 L 205.296875 342.019531 L 205.390625 341.3125 L 205.484375 340.597656 L 205.578125 339.875 L 205.671875 339.140625 L 205.765625 338.398438 L 205.859375 337.644531 L 205.953125 336.882813 L 206.046875 336.109375 L 206.140625 335.328125 L 206.238281 334.539063 L 206.332031 333.738281 L 206.425781 332.925781 L 206.519531 332.105469 L 206.613281 331.277344 L 206.707031 330.4375 L 206.800781 329.589844 L 206.894531 328.734375 L 206.988281 327.867188 L 207.085938 326.988281 L 207.179688 326.101563 L 207.273438 325.207031 L 207.367188 324.300781 L 207.460938 323.386719 L 207.554688 322.460938 L 207.648438 321.53125 L 207.742188 320.585938 L 207.835938 319.636719 L 207.933594 318.675781 L 208.027344 317.703125 L 208.121094 316.726563 L 208.214844 315.734375 L 208.308594 314.738281 L 208.402344 313.730469 L 208.496094 312.714844 L 208.589844 311.691406 L 208.683594 310.660156 L 208.78125 309.617188 L 208.875 308.566406 L 208.96875 307.503906 L 209.0625 306.4375 L 209.15625 305.359375 L 209.25 304.273438 L 209.34375 303.179688 L 209.4375 302.078125 L 209.53125 300.96875 L 209.628906 299.851563 L 209.722656 298.722656 L 209.816406 297.585938 L 209.910156 296.445313 L 210.003906 295.292969 L 210.097656 294.132813 L 210.191406 292.96875 L 210.285156 291.792969 L 210.378906 290.609375 L 210.476563 289.421875 L 210.570313 288.222656 L 210.664063 287.019531 L 210.757813 285.808594 L 210.851563 284.589844 L 210.945313 283.363281 L 211.039063 282.128906 L 211.132813 280.890625 L 211.226563 279.644531 L 211.324219 278.390625 L 211.417969 277.128906 L 211.511719 275.863281 L 211.605469 274.589844 L 211.699219 273.3125 L 211.792969 272.027344 L 211.886719 270.734375 L 211.980469 269.4375 L 212.074219 268.132813 L 212.171875 266.824219 L 212.265625 265.511719 L 212.359375 264.191406 L 212.453125 262.867188 L 212.546875 261.535156 L 212.640625 260.199219 L 212.734375 258.859375 L 212.921875 256.164063 L 213.019531 254.808594 L 213.207031 252.082031 L 213.300781 250.714844 L 213.488281 247.964844 L 213.582031 246.585938 L 213.769531 243.8125 L 213.867188 242.417969 L 213.960938 241.023438 L 214.148438 238.226563 L 214.335938 235.414063 L 214.429688 234.003906 L 214.617188 231.175781 L 214.714844 229.757813 L 214.996094 225.492188 L 215.183594 222.640625 L 215.371094 219.78125 L 215.464844 218.347656 L 215.5625 216.914063 L 215.84375 212.613281 L 215.9375 211.175781 L 216.03125 209.742188 L 216.21875 206.867188 L 216.3125 205.433594 L 216.410156 203.996094 L 216.503906 202.558594 L 216.597656 201.125 L 216.691406 199.6875 L 216.972656 195.386719 L 217.160156 192.527344 L 217.257813 191.097656 L 217.539063 186.820313 L 217.632813 185.398438 L 217.914063 181.144531 L 218.007813 179.734375 L 218.105469 178.320313 L 218.199219 176.914063 L 218.386719 174.109375 L 218.574219 171.3125 L 218.667969 169.921875 L 218.855469 167.148438 L 218.953125 165.769531 L 219.046875 164.390625 L 219.234375 161.648438 L 219.328125 160.285156 L 219.421875 158.925781 L 219.515625 157.570313 L 219.609375 156.21875 L 219.703125 154.871094 L 219.800781 153.53125 L 219.894531 152.195313 L 219.988281 150.863281 L 220.082031 149.535156 L 220.175781 148.214844 L 220.269531 146.902344 L 220.363281 145.59375 L 220.457031 144.289063 L 220.550781 142.992188 L 220.648438 141.699219 L 220.742188 140.414063 L 220.835938 139.132813 L 220.929688 137.859375 L 221.023438 136.59375 L 221.117188 135.332031 L 221.210938 134.078125 L 221.304688 132.832031 L 221.398438 131.59375 L 221.496094 130.359375 L 221.589844 129.132813 L 221.683594 127.914063 L 221.777344 126.703125 L 221.871094 125.5 L 221.964844 124.300781 L 222.058594 123.113281 L 222.152344 121.929688 L 222.246094 120.757813 L 222.34375 119.589844 L 222.4375 118.433594 L 222.53125 117.28125 L 222.625 116.140625 L 222.71875 115.007813 L 222.8125 113.878906 L 222.90625 112.761719 L 223 111.65625 L 223.09375 110.554688 L 223.191406 109.460938 L 223.285156 108.378906 L 223.378906 107.304688 L 223.472656 106.238281 L 223.566406 105.183594 L 223.660156 104.136719 L 223.753906 103.097656 L 223.847656 102.066406 L 223.941406 101.046875 L 224.035156 100.039063 L 224.132813 99.035156 L 224.226563 98.042969 L 224.320313 97.0625 L 224.414063 96.089844 L 224.507813 95.125 L 224.601563 94.171875 L 224.695313 93.230469 L 224.789063 92.296875 L 224.882813 91.371094 L 224.980469 90.457031 L 225.074219 89.554688 L 225.167969 88.660156 L 225.261719 87.773438 L 225.355469 86.902344 L 225.449219 86.039063 L 225.542969 85.183594 L 225.636719 84.339844 L 225.730469 83.507813 L 225.828125 82.6875 L 225.921875 81.875 L 226.015625 81.074219 L 226.109375 80.28125 L 226.203125 79.503906 L 226.296875 78.734375 L 226.390625 77.972656 L 226.484375 77.226563 L 226.578125 76.488281 L 226.675781 75.761719 L 226.769531 75.042969 L 226.863281 74.339844 L 226.957031 73.644531 L 227.050781 72.960938 L 227.144531 72.289063 L 227.238281 71.625 L 227.332031 70.976563 L 227.425781 70.335938 L 227.523438 69.707031 L 227.617188 69.089844 L 227.710938 68.480469 L 227.804688 67.886719 L 227.898438 67.300781 L 227.992188 66.726563 L 228.085938 66.164063 L 228.179688 65.613281 L 228.273438 65.074219 L 228.371094 64.542969 L 228.464844 64.027344 L 228.558594 63.519531 L 228.652344 63.023438 L 228.746094 62.539063 L 228.839844 62.066406 L 228.933594 61.601563 L 229.027344 61.152344 L 229.121094 60.710938 L 229.21875 60.28125 L 229.3125 59.863281 L 229.40625 59.457031 L 229.5 59.0625 L 229.59375 58.675781 L 229.6875 58.304688 L 229.78125 57.941406 L 229.875 57.589844 L 229.96875 57.25 L 230.066406 56.921875 L 230.160156 56.605469 L 230.253906 56.300781 L 230.347656 56.003906 L 230.441406 55.71875 L 230.535156 55.445313 L 230.628906 55.183594 L 230.722656 54.933594 L 230.816406 54.691406 L 230.914063 54.460938 L 231.007813 54.246094 L 231.101563 54.035156 L 231.195313 53.839844 L 231.289063 53.65625 L 231.382813 53.480469 L 231.476563 53.316406 L 231.570313 53.164063 L 231.664063 53.019531 L 231.761719 52.890625 L 231.855469 52.769531 L 231.949219 52.65625 L 232.042969 52.558594 L 232.136719 52.46875 L 232.230469 52.390625 L 232.324219 52.324219 L 232.417969 52.265625 L 232.511719 52.21875 L 232.609375 52.183594 L 232.703125 52.15625 L 232.796875 52.140625 L 232.890625 52.136719 L 232.984375 52.140625 L 233.078125 52.15625 L 233.171875 52.183594 L 233.265625 52.21875 L 233.359375 52.265625 L 233.457031 52.320313 L 233.550781 52.386719 L 233.644531 52.460938 L 233.738281 52.546875 L 233.832031 52.644531 L 233.925781 52.75 L 234.019531 52.867188 L 234.113281 52.992188 L 234.207031 53.128906 L 234.304688 53.273438 L 234.398438 53.425781 L 234.492188 53.589844 L 234.585938 53.765625 L 234.679688 53.945313 L 234.773438 54.140625 L 234.867188 54.339844 L 234.960938 54.554688 L 235.054688 54.773438 L 235.152344 55.003906 L 235.246094 55.242188 L 235.339844 55.488281 L 235.433594 55.746094 L 235.527344 56.011719 L 235.621094 56.289063 L 235.714844 56.570313 L 235.808594 56.863281 L 235.902344 57.167969 L 236 57.476563 L 236.09375 57.796875 L 236.1875 58.121094 L 236.28125 58.457031 L 236.375 58.804688 L 236.46875 59.15625 L 236.5625 59.515625 L 236.65625 59.886719 L 236.75 60.265625 L 236.847656 60.652344 L 236.941406 61.042969 L 237.035156 61.445313 L 237.128906 61.855469 L 237.222656 62.273438 L 237.316406 62.699219 L 237.410156 63.132813 L 237.503906 63.574219 L 237.597656 64.023438 L 237.695313 64.480469 L 237.789063 64.945313 L 237.882813 65.417969 L 237.976563 65.894531 L 238.070313 66.382813 L 238.164063 66.875 L 238.257813 67.378906 L 238.351563 67.886719 L 238.445313 68.402344 L 238.542969 68.921875 L 238.636719 69.453125 L 238.730469 69.988281 L 238.824219 70.53125 L 238.917969 71.082031 L 239.011719 71.636719 L 239.105469 72.199219 L 239.199219 72.769531 L 239.292969 73.34375 L 239.390625 73.925781 L 239.484375 74.515625 L 239.578125 75.109375 L 239.671875 75.710938 L 239.765625 76.320313 L 239.859375 76.933594 L 239.953125 77.554688 L 240.046875 78.179688 L 240.140625 78.808594 L 240.238281 79.445313 L 240.332031 80.089844 L 240.425781 80.738281 L 240.519531 81.390625 L 240.613281 82.050781 L 240.800781 83.386719 L 240.894531 84.0625 L 240.988281 84.746094 L 241.085938 85.433594 L 241.179688 86.125 L 241.273438 86.820313 L 241.367188 87.523438 L 241.460938 88.230469 L 241.554688 88.941406 L 241.648438 89.65625 L 241.742188 90.378906 L 241.835938 91.105469 L 241.929688 91.835938 L 242.027344 92.570313 L 242.121094 93.308594 L 242.308594 94.800781 L 242.402344 95.554688 L 242.589844 97.070313 L 242.683594 97.835938 L 242.777344 98.605469 L 242.875 99.378906 L 242.96875 100.15625 L 243.0625 100.9375 L 243.25 102.507813 L 243.34375 103.300781 L 243.53125 104.894531 L 243.625 105.699219 L 243.722656 106.503906 L 243.816406 107.3125 L 243.910156 108.125 L 244.097656 109.757813 L 244.285156 111.40625 L 244.378906 112.234375 L 244.472656 113.066406 L 244.570313 113.898438 L 244.664063 114.734375 L 244.851563 116.414063 L 244.945313 117.257813 L 245.132813 118.953125 L 245.226563 119.804688 L 245.320313 120.660156 L 245.417969 121.515625 L 245.605469 123.234375 L 245.699219 124.097656 L 245.980469 126.699219 L 246.167969 128.441406 L 246.265625 129.316406 L 246.359375 130.191406 L 246.546875 131.949219 L 246.921875 135.480469 L 247.015625 136.367188 L 247.113281 137.257813 L 247.207031 138.144531 L 247.300781 139.035156 L 247.394531 139.929688 L 247.488281 140.820313 L 247.863281 144.398438 L 247.960938 145.296875 L 248.242188 147.992188 L 248.335938 148.894531 L 248.429688 149.792969 L 248.710938 152.5 L 248.808594 153.402344 L 248.996094 155.207031 L 249.089844 156.113281 L 249.277344 157.917969 L 249.371094 158.824219 L 249.464844 159.726563 L 249.558594 160.632813 L 249.65625 161.535156 L 249.75 162.441406 L 249.9375 164.246094 L 250.03125 165.152344 L 250.40625 168.761719 L 250.503906 169.664063 L 250.785156 172.371094 L 250.972656 174.167969 L 251.066406 175.070313 L 251.160156 175.96875 L 251.253906 176.863281 L 251.351563 177.761719 L 251.445313 178.660156 L 251.726563 181.34375 L 251.820313 182.234375 L 251.914063 183.128906 L 252.101563 184.910156 L 252.199219 185.796875 L 252.292969 186.6875 L 252.386719 187.574219 L 252.480469 188.457031 L 252.574219 189.34375 L 252.761719 191.109375 L 252.855469 191.988281 L 252.949219 192.871094 L 253.046875 193.75 L 253.328125 196.375 L 253.421875 197.246094 L 253.515625 198.121094 L 253.796875 200.722656 L 253.894531 201.589844 L 254.082031 203.316406 L 254.269531 205.035156 L 254.550781 207.601563 L 254.644531 208.453125 L 254.742188 209.300781 L 254.929688 210.996094 L 255.117188 212.683594 L 255.304688 214.363281 L 255.492188 216.035156 L 255.589844 216.867188 L 255.683594 217.695313 L 255.777344 218.527344 L 256.058594 221 L 256.152344 221.820313 L 256.339844 223.453125 L 256.4375 224.269531 L 256.53125 225.078125 L 256.625 225.890625 L 256.90625 228.304688 L 257 229.105469 L 257.1875 230.699219 L 257.285156 231.492188 L 257.378906 232.285156 L 257.472656 233.074219 L 257.660156 234.644531 L 257.753906 235.425781 L 258.035156 237.757813 L 258.132813 238.527344 L 258.320313 240.066406 L 258.601563 242.351563 L 258.695313 243.109375 L 258.789063 243.863281 L 258.882813 244.613281 L 258.980469 245.363281 L 259.074219 246.113281 L 259.261719 247.597656 L 259.449219 249.074219 L 259.542969 249.808594 L 259.730469 251.269531 L 259.828125 251.996094 L 259.921875 252.71875 L 260.109375 254.15625 L 260.296875 255.585938 L 260.390625 256.296875 L 260.484375 257.003906 L 260.671875 258.410156 L 260.769531 259.109375 L 260.957031 260.5 L 261.050781 261.191406 L 261.238281 262.566406 L 261.332031 263.25 L 261.425781 263.929688 L 261.519531 264.605469 L 261.617188 265.28125 L 261.804688 266.625 L 262.085938 268.617188 L 262.273438 269.929688 L 262.367188 270.582031 L 262.464844 271.234375 L 262.746094 273.167969 L 262.933594 274.441406 L 263.121094 275.707031 L 263.214844 276.332031 L 263.3125 276.957031 L 263.40625 277.582031 L 263.59375 278.816406 L 263.78125 280.042969 L 263.875 280.652344 L 263.96875 281.257813 L 264.0625 281.859375 L 264.160156 282.460938 L 264.253906 283.058594 L 264.347656 283.652344 L 264.535156 284.832031 L 264.722656 286.003906 L 264.910156 287.160156 L 265.007813 287.734375 L 265.101563 288.308594 L 265.195313 288.878906 L 265.289063 289.445313 L 265.476563 290.570313 L 265.570313 291.128906 L 265.757813 292.238281 L 265.855469 292.789063 L 266.042969 293.882813 L 266.136719 294.421875 L 266.230469 294.964844 L 266.417969 296.035156 L 266.511719 296.566406 L 266.605469 297.09375 L 266.703125 297.621094 L 266.796875 298.144531 L 266.890625 298.664063 L 267.171875 300.210938 L 267.359375 301.226563 L 267.453125 301.730469 L 267.550781 302.234375 L 267.832031 303.722656 L 267.925781 304.214844 L 268.019531 304.703125 L 268.207031 305.671875 L 268.300781 306.152344 L 268.398438 306.628906 L 268.492188 307.105469 L 268.679688 308.050781 L 268.773438 308.515625 L 268.867188 308.984375 L 269.054688 309.90625 L 269.148438 310.363281 L 269.246094 310.816406 L 269.433594 311.722656 L 269.621094 312.613281 L 269.808594 313.496094 L 269.902344 313.933594 L 269.996094 314.367188 L 270.09375 314.800781 L 270.1875 315.230469 L 270.375 316.082031 L 270.5625 316.925781 L 270.65625 317.34375 L 270.84375 318.171875 L 270.941406 318.582031 L 271.128906 319.394531 L 271.316406 320.199219 L 271.503906 320.996094 L 271.597656 321.386719 L 271.691406 321.78125 L 271.789063 322.167969 L 271.976563 322.941406 L 272.070313 323.320313 L 272.164063 323.703125 L 272.445313 324.828125 L 272.539063 325.199219 L 272.636719 325.566406 L 272.730469 325.933594 L 272.917969 326.660156 L 273.011719 327.019531 L 273.199219 327.730469 L 273.386719 328.433594 L 273.484375 328.78125 L 273.578125 329.128906 L 273.671875 329.472656 L 273.953125 330.492188 L 274.046875 330.828125 L 274.234375 331.492188 L 274.332031 331.820313 L 274.425781 332.148438 L 274.613281 332.796875 L 274.800781 333.4375 L 274.894531 333.753906 L 275.082031 334.378906 L 275.179688 334.691406 L 275.273438 335 L 275.554688 335.914063 L 275.648438 336.214844 L 275.835938 336.808594 L 275.929688 337.101563 L 276.027344 337.394531 L 276.121094 337.6875 L 276.214844 337.976563 L 276.496094 338.832031 L 276.589844 339.113281 L 276.777344 339.667969 L 276.875 339.945313 L 277.0625 340.492188 L 277.25 341.03125 L 277.4375 341.5625 L 277.625 342.085938 L 277.722656 342.34375 L 277.910156 342.859375 L 278.003906 343.113281 L 278.097656 343.363281 L 278.191406 343.617188 L 278.285156 343.863281 L 278.378906 344.113281 L 278.472656 344.355469 L 278.570313 344.601563 L 278.664063 344.84375 L 278.945313 345.558594 L 279.226563 346.261719 L 279.320313 346.492188 L 279.414063 346.71875 L 279.511719 346.945313 L 279.699219 347.398438 L 279.792969 347.617188 L 279.886719 347.839844 L 280.074219 348.277344 L 280.261719 348.707031 L 280.359375 348.921875 L 280.546875 349.34375 L 280.828125 349.964844 L 281.109375 350.574219 L 281.207031 350.773438 L 281.300781 350.96875 L 281.394531 351.167969 L 281.488281 351.363281 L 281.582031 351.554688 L 281.675781 351.75 L 281.769531 351.941406 L 281.863281 352.128906 L 281.957031 352.320313 L 282.054688 352.503906 L 282.148438 352.691406 L 282.335938 353.058594 L 282.429688 353.238281 L 282.523438 353.421875 L 282.617188 353.597656 L 282.710938 353.777344 L 282.804688 353.953125 L 282.902344 354.128906 L 283.277344 354.816406 L 283.371094 354.984375 L 283.464844 355.148438 L 283.558594 355.316406 L 283.652344 355.480469 L 283.75 355.644531 L 283.84375 355.808594 L 284.03125 356.128906 L 284.125 356.285156 L 284.21875 356.445313 L 284.3125 356.601563 L 284.40625 356.753906 L 284.5 356.910156 L 284.597656 357.0625 L 284.691406 357.210938 L 284.785156 357.363281 L 285.066406 357.808594 L 285.347656 358.242188 L 285.445313 358.382813 L 285.726563 358.804688 L 286.101563 359.351563 L 286.195313 359.484375 L 286.292969 359.617188 L 286.386719 359.75 L 286.855469 360.394531 L 287.042969 360.644531 L 287.140625 360.765625 L 287.234375 360.890625 L 287.515625 361.253906 L 287.890625 361.722656 L 287.988281 361.835938 L 288.082031 361.953125 L 288.175781 362.066406 L 288.269531 362.175781 L 288.363281 362.289063 L 288.738281 362.726563 L 288.835938 362.832031 L 288.929688 362.941406 L 289.023438 363.046875 L 289.117188 363.148438 L 289.210938 363.253906 L 289.585938 363.660156 L 289.683594 363.761719 L 289.964844 364.054688 L 290.058594 364.148438 L 290.152344 364.246094 L 290.433594 364.527344 L 290.53125 364.621094 L 290.625 364.710938 L 290.71875 364.804688 L 290.90625 364.984375 L 291 365.070313 L 291.09375 365.160156 L 291.28125 365.332031 L 291.378906 365.417969 L 291.566406 365.589844 L 291.660156 365.671875 L 291.753906 365.757813 L 291.941406 365.921875 L 292.035156 366 L 292.128906 366.082031 L 292.226563 366.160156 L 292.320313 366.238281 L 292.414063 366.320313 L 292.507813 366.394531 L 292.695313 366.550781 L 292.976563 366.773438 L 293.074219 366.847656 L 293.261719 366.996094 L 293.824219 367.417969 L 293.921875 367.484375 L 294.015625 367.554688 L 294.390625 367.820313 L 294.484375 367.882813 L 294.578125 367.949219 L 294.671875 368.011719 L 294.769531 368.074219 L 295.144531 368.324219 L 295.238281 368.382813 L 295.332031 368.445313 L 295.519531 368.5625 L 295.617188 368.621094 L 295.804688 368.738281 L 295.898438 368.792969 L 295.992188 368.851563 L 296.367188 369.070313 L 296.464844 369.125 L 296.652344 369.234375 L 296.746094 369.285156 L 296.839844 369.339844 L 297.214844 369.542969 L 297.3125 369.59375 L 297.40625 369.640625 L 297.59375 369.742188 L 298.15625 370.023438 L 298.253906 370.070313 L 298.347656 370.113281 L 298.441406 370.160156 L 298.535156 370.203125 L 298.628906 370.25 L 299.003906 370.421875 L 299.101563 370.464844 L 299.195313 370.507813 L 299.289063 370.546875 L 299.382813 370.589844 L 299.476563 370.628906 L 299.570313 370.671875 L 299.851563 370.789063 L 299.949219 370.828125 L 300.136719 370.90625 L 300.230469 370.941406 L 300.417969 371.019531 L 300.605469 371.089844 L 300.699219 371.128906 L 300.796875 371.164063 L 301.265625 371.339844 L 301.359375 371.371094 L 301.453125 371.40625 L 301.546875 371.4375 L 301.644531 371.472656 L 301.738281 371.503906 L 301.832031 371.539063 L 302.394531 371.726563 L 302.492188 371.757813 L 302.585938 371.789063 L 302.679688 371.816406 L 302.773438 371.847656 L 302.867188 371.875 L 302.960938 371.90625 L 303.148438 371.960938 L 303.242188 371.992188 L 303.339844 372.019531 L 303.902344 372.183594 L 303.996094 372.207031 L 304.089844 372.234375 L 304.1875 372.261719 L 304.28125 372.285156 L 304.375 372.3125 L 304.5625 372.359375 L 304.65625 372.386719 L 304.9375 372.457031 L 305.035156 372.480469 L 305.597656 372.621094 L 305.691406 372.640625 L 305.785156 372.664063 L 305.882813 372.6875 L 305.976563 372.707031 L 306.070313 372.730469 L 306.257813 372.769531 L 306.351563 372.792969 L 306.632813 372.851563 L 306.730469 372.871094 L 306.824219 372.894531 L 307.011719 372.933594 L 307.105469 372.949219 L 307.480469 373.027344 L 307.578125 373.042969 L 307.765625 373.082031 L 307.859375 373.097656 L 307.953125 373.117188 L 308.046875 373.132813 L 308.140625 373.152344 L 308.328125 373.183594 L 308.425781 373.203125 L 308.707031 373.25 L 308.800781 373.269531 L 309.175781 373.332031 L 309.273438 373.347656 L 309.460938 373.378906 L 309.554688 373.390625 L 309.835938 373.4375 L 309.929688 373.449219 L 310.023438 373.464844 L 310.121094 373.480469 L 310.214844 373.492188 L 310.308594 373.507813 L 310.402344 373.519531 L 310.496094 373.535156 L 310.589844 373.546875 L 310.683594 373.5625 L 310.777344 373.574219 L 310.871094 373.589844 L 310.96875 373.601563 L 311.15625 373.625 L 311.25 373.640625 L 311.71875 373.699219 L 311.816406 373.710938 L 312.566406 373.804688 L 312.664063 373.8125 L 312.945313 373.847656 L 313.039063 373.855469 L 313.226563 373.878906 L 313.320313 373.886719 L 313.414063 373.898438 L 313.511719 373.90625 L 313.605469 373.917969 L 313.699219 373.925781 L 313.792969 373.9375 L 313.886719 373.945313 L 313.980469 373.957031 L 314.167969 373.972656 L 314.261719 373.984375 L 314.359375 373.992188 L 314.453125 374 L 314.546875 374.011719 L 314.828125 374.035156 L 314.921875 374.046875 L 315.109375 374.0625 L 315.207031 374.070313 L 315.957031 374.132813 L 316.054688 374.140625 L 316.617188 374.1875 L 316.710938 374.191406 L 316.898438 374.207031 L 316.996094 374.214844 L 317.089844 374.21875 L 317.371094 374.242188 L 317.464844 374.246094 L 317.652344 374.261719 L 317.746094 374.265625 L 317.84375 374.273438 L 317.9375 374.277344 L 318.03125 374.285156 L 318.125 374.289063 L 318.3125 374.304688 L 318.40625 374.308594 L 318.5 374.316406 L 318.59375 374.320313 L 318.691406 374.324219 L 318.785156 374.332031 L 318.878906 374.335938 L 318.972656 374.34375 L 319.066406 374.347656 L 319.160156 374.355469 L 319.347656 374.363281 L 319.441406 374.371094 L 319.539063 374.375 L 319.632813 374.378906 L 319.726563 374.386719 L 319.914063 374.394531 L 320.007813 374.402344 L 320.289063 374.414063 L 320.386719 374.417969 L 320.480469 374.425781 L 320.855469 374.441406 L 320.949219 374.449219 L 321.136719 374.457031 L 321.234375 374.460938 L 321.984375 374.492188 L 322.082031 374.496094 L 322.832031 374.527344 L 322.929688 374.53125 L 323.304688 374.546875 L 323.398438 374.546875 L 323.679688 374.558594 L 323.777344 374.5625 L 323.964844 374.570313 L 324.058594 374.570313 L 324.433594 374.585938 L 324.527344 374.585938 L 324.625 374.589844 L 324.8125 374.597656 L 324.90625 374.597656 L 325.1875 374.609375 L 325.28125 374.609375 L 325.375 374.613281 L 325.472656 374.617188 L 325.566406 374.617188 L 325.753906 374.625 L 325.847656 374.625 L 326.035156 374.632813 L 326.128906 374.632813 L 326.222656 374.636719 L 326.320313 374.640625 L 326.414063 374.640625 L 326.507813 374.644531 L 326.601563 374.644531 L 326.789063 374.652344 L 326.882813 374.652344 L 326.976563 374.65625 L 327.070313 374.65625 L 327.167969 374.660156 L 327.261719 374.664063 L 327.355469 374.664063 L 327.449219 374.667969 L 327.542969 374.667969 L 327.636719 374.671875 L 327.730469 374.671875 L 327.824219 374.675781 L 327.917969 374.675781 L 328.015625 374.679688 L 328.109375 374.679688 L 328.203125 374.683594 L 328.296875 374.683594 L 328.390625 374.6875 L 328.484375 374.6875 L 328.578125 374.691406 L 328.671875 374.691406 L 328.765625 374.695313 L 328.863281 374.695313 L 328.957031 374.699219 L 329.050781 374.699219 L 329.144531 374.703125 L 329.238281 374.703125 L 329.332031 374.707031 L 329.519531 374.707031 L 329.613281 374.710938 L 329.710938 374.710938 L 329.804688 374.714844 L 329.898438 374.714844 L 329.992188 374.71875 L 330.179688 374.71875 L 330.273438 374.722656 L 330.367188 374.722656 L 330.460938 374.726563 L 330.652344 374.726563 L 330.746094 374.730469 L 330.839844 374.730469 L 330.933594 374.734375 L 331.121094 374.734375 L 331.214844 374.738281 L 331.40625 374.738281 L 331.5 374.742188 L 331.6875 374.742188 L 331.78125 374.746094 L 331.96875 374.746094 L 332.0625 374.75 L 332.253906 374.75 L 332.347656 374.753906 L 332.535156 374.753906 L 332.628906 374.757813 L 332.816406 374.757813 L 332.910156 374.761719 L 333.195313 374.761719 L 333.289063 374.765625 L 333.476563 374.765625 L 333.570313 374.769531 L 333.851563 374.769531 L 333.945313 374.773438 L 334.230469 374.773438 L 334.324219 374.777344 L 334.605469 374.777344 L 334.699219 374.78125 L 334.984375 374.78125 L 335.078125 374.785156 L 335.453125 374.785156 L 335.546875 374.789063 L 335.832031 374.789063 L 335.925781 374.792969 L 336.300781 374.792969 L 336.394531 374.796875 L 336.773438 374.796875 L 336.867188 374.800781 L 337.335938 374.800781 L 337.433594 374.804688 L 337.902344 374.804688 L 337.996094 374.808594 L 338.46875 374.808594 L 338.5625 374.8125 L 339.128906 374.8125 L 339.222656 374.816406 L 339.785156 374.816406 L 339.878906 374.820313 L 340.539063 374.820313 L 340.632813 374.824219 L 341.292969 374.824219 L 341.386719 374.828125 L 342.234375 374.828125 L 342.328125 374.832031 L 343.269531 374.832031 L 343.367188 374.835938 L 344.402344 374.835938 L 344.496094 374.839844 L 345.71875 374.839844 L 345.8125 374.84375 L 347.320313 374.84375 L 347.414063 374.847656 L 349.300781 374.847656 L 349.394531 374.851563 L 351.9375 374.851563 L 352.03125 374.855469 L 355.796875 374.855469 L 355.890625 374.859375 L 363.613281 374.859375 L 363.707031 374.863281 L 560.453125 374.863281 "/>
<path fill="none" stroke-width="1" stroke-linecap="butt" stroke-linejoin="miter" stroke="rgb(0%, 0%, 0%)" stroke-opacity="1" stroke-miterlimit="1.154701" d="M 89.546875 391.5 L 89.546875 396.5 "/>
<path fill="none" stroke-width="1" stroke-linecap="butt" stroke-linejoin="miter" stroke="rgb(0%, 0%, 0%)" stroke-opacity="1" stroke-miterlimit="1.154701" d="M 277.910156 391.5 L 277.910156 396.5 "/>
<path fill="none" stroke-width="1" stroke-linecap="butt" stroke-linejoin="miter" stroke="rgb(0%, 0%, 0%)" stroke-opacity="1" stroke-miterlimit="1.154701" d="M 466.273438 391.5 L 466.273438 396.5 "/>
<path fill="none" stroke-width="1" stroke-linecap="butt" stroke-linejoin="miter" stroke="rgb(0%, 0%, 0%)" stroke-opacity="1" stroke-miterlimit="1.154701" d="M 65.5 374.863281 L 60.5 374.863281 "/>
<path fill="none" stroke-width="1" stroke-linecap="butt" stroke-linejoin="miter" stroke="rgb(0%, 0%, 0%)" stroke-opacity="1" stroke-miterlimit="1.154701" d="M 65.5 213.5 L 60.5 213.5 "/>
<path fill="none" stroke-width="1" stroke-linecap="butt" stroke-linejoin="miter" stroke="rgb(0%, 0%, 0%)" stroke-opacity="1" stroke-miterlimit="1.154701" d="M 65.5 52.136719 L 60.5 52.136719 "/>
<path fill="none" stroke-width="1" stroke-linecap="butt" stroke-linejoin="miter" stroke="rgb(0%, 0%, 0%)" stroke-opacity="1" stroke-miterlimit="1.154701" d="M 65.5 391 L 584.5 391 "/>
<path fill="none" stroke-width="1" stroke-linecap="butt" stroke-linejoin="miter" stroke="rgb(0%, 0%, 0%)" stroke-opacity="1" stroke-miterlimit="1.154701" d="M 66 391.5 L 66 35.5 "/>
<path fill="none" stroke-width="1" stroke-linecap="butt" stroke-linejoin="miter" stroke="rgb(0%, 0%, 0%)" stroke-opacity="1" stroke-miterlimit="1.154701" d="M 65.5 36 L 584.5 36 "/>
<path fill="none" stroke-width="1" stroke-linecap="butt" stroke-linejoin="miter" stroke="rgb(0%, 0%, 0%)" stroke-opacity="1" stroke-miterlimit="1.154701" d="M 584 391.5 L 584 35.5 "/>
</svg>
